# xmcd
#
# Track frame offsets:
#	150
#	14377
#	32074
#	44483
#	60850
#	76830
#	94569
#	111824
#	128483
#	148353
#	168216
#	184829
#
# Disc length: 2740 seconds
#
# Revision: 0
# Processed by: cddbd v1.5.2PL0 Copyright (c) Steve Scherf et al.
# Submitted via: dBpowerAMP V4.0
#
DISCID=920ab20c
DTITLE=Eran James - Ten Songs About Love
DYEAR=2007
DGENRE=Blues
TTITLE0=Prelude: Halo
TTITLE1=Touched By Love
TTITLE2=The Other Side Of Love
TTITLE3=You Know When It Feels Right
TTITLE4=Heavy Heart
TTITLE5=Something Beautiful
TTITLE6=I Still Do
TTITLE7=We Can
TTITLE8=We Both Know
TTITLE9=Won't Even Try
TTITLE10=Ten Songs About Love
TTITLE11=Epilogue: The World At Your Feet
EXTD=
EXTT0=
EXTT1=
EXTT2=
EXTT3=
EXTT4=
EXTT5=
EXTT6=
EXTT7=
EXTT8=
EXTT9=
EXTT10=
EXTT11=
PLAYORDER=
